{"title":"Breaker High Complete Series","uid":10298979,"size":8097036423,"categoryP":"video","categoryS":"tv_shows","magnet":"?xt=urn:btih:0ff584728ebb71e4b4dee8b59aac95eca4895a4f&amp;dn=Breaker+High+Complete+Series&amp;tr=udp%3A%2F%2Ftracker.openbittorrent.com%3A80&amp;tr=udp%3A%2F%2Fopen.demonii.com%3A1337&amp;tr=udp%3A%2F%2Ftracker.coppersurfer.tk%3A6969&amp;tr=udp%3A%2F%2Fexodus.desync.com%3A6969","seeders":5,"leechers":1,"uploader":null,"files":137,"time":1401943949,"description":"The series is set at a high school located on a cruise ship, allowing the episodes to be set in a variety of exotic locations, although the series was, in fact, filmed entirely in Burnaby, British Columbia. The show dealt with teen issues such as dating, finances, and friendship, although the series tended to steer away from the &quot;tougher&quot; situations outlined in other teen dramas at the time.\n\nExample Audio &amp; Video Information:\n(Taken From One Episode)\n\nOverall bit rate : 1 189 Kbps\nWriting application : VirtualDubMod 1.5.10.1 (build 2366/release)\nWriting library : VirtualDubMod build 2366/release\n\nVideo\nID : 0\nFormat : MPEG-4 Visual\nFormat profile : Advanced Simple@L5\nFormat settings, BVOP : 2\nFormat settings, QPel : No\nFormat settings, GMC : No warppoints\nFormat settings, Matrix : Default (H.263)\nMuxing mode : Packed bitstream\nCodec ID : XVID\nCodec ID/Hint : XviD\nDuration : 20mn 38s\nBit rate : 1 050 Kbps\nWidth : 576 pixels\nHeight : 432 pixels\nDisplay aspect ratio : 4:3\nFrame rate : 29.970 fps\nColor space : YUV\nChroma subsampling : 4:2:0\nBit depth : 8 bits\nScan type : Progressive\nCompression mode : Lossy\nBits/(Pixel*Frame) : 0.141\nStream size : 155 MiB (88%)\nWriting library : XviD 1.1.0 (UTC 2005-11-22)\n\nAudio\nID : 1\nFormat : MPEG Audio\nFormat version : Version 1\nFormat profile : Layer 3\nMode : Joint stereo\nMode extension : MS Stereo\nCodec ID : 55\nCodec ID/Hint : MP3\nDuration : 20mn 38s\nBit rate mode : Constant\nBit rate : 128 Kbps\nChannel(s) : 2 channels\nSampling rate : 44.1 KHz\nCompression mode : Lossy\nStream size : 18.9 MiB (11%)\nAlignment : Split accross interleaves\nInterleave, duration : 33 ms (1.00 video frame)\nInterleave, preload duration : 501 ms","torrent":{"xt":"urn:btih:0ff584728ebb71e4b4dee8b59aac95eca4895a4f","amp;dn":"Breaker+High+Complete+Series","amp;tr":["udp%3A%2F%2Ftracker.openbittorrent.com%3A80","udp%3A%2F%2Fopen.demonii.com%3A1337","udp%3A%2F%2Ftracker.coppersurfer.tk%3A6969","udp%3A%2F%2Fexodus.desync.com%3A6969"],"infoHash":"0ff584728ebb71e4b4dee8b59aac95eca4895a4f","infoHashBuffer":{"type":"Buffer","data":[15,245,132,114,142,187,113,228,180,222,232,181,154,172,149,236,164,137,90,79]},"announce":[],"urlList":[]}}